<svg width="24" height="24" viewBox="0 0 24 24" fill="none" xmlns="http://www.w3.org/2000/svg">
  <rect width="24" height="24" rx="5" fill="#001E36"/>
  <path d="M6 17V7.5H10.1C12.3 7.5 13.7 8.7 13.7 10.7C13.7 12.8 12.2 14 10 14H8.2V17H6ZM8.2 12.2H9.8C10.8 12.2 11.4 11.7 11.4 10.8C11.4 9.9 10.8 9.4 9.8 9.4H8.2V12.2Z" fill="#31A8FF"/>
  <path d="M15.6 17.1C14.7 17.1 13.8 16.8 13.2 16.3L14 14.8C14.5 15.2 15.1 15.4 15.7 15.4C16.3 15.4 16.7 15.2 16.7 14.8C16.7 14.3 16.1 14.2 15.4 14C14.5 13.8 13.5 13.3 13.5 12.1C13.5 10.9 14.5 10 16 10C16.8 10 17.5 10.2 18.1 10.7L17.3 12.1C16.9 11.8 16.5 11.6 16 11.6C15.4 11.6 15.1 11.8 15.1 12.2C15.1 12.6 15.5 12.7 16.2 12.9C17.3 13.2 18.3 13.6 18.3 14.9C18.3 16.2 17.2 17.1 15.6 17.1Z" fill="#31A8FF"/>
</svg>
